HIERARCHY
ROOT base
{
	OFFSET 0.0 0.0 0.0
	CHANNELS 6 Xposition Yposition Zposition Zrotation Yrotation Xrotation
	JOINT root
	{
		OFFSET 0 0 0
		CHANNELS 6 Xposition Yposition Zposition Zrotation Yrotation Xrotation
		JOINT chest
		{
			OFFSET 0 4.72302 0
			CHANNELS 3 Zrotation Yrotation Xrotation
			JOINT neck
			{
				OFFSET 0 4.47788 0
				CHANNELS 3 Zrotation Yrotation Xrotation
				End Site
				{
					OFFSET 0.0 0.0 0.0
				}
			}
			JOINT right_shoulder
			{
				OFFSET -0.481 4.87 3.6622
				CHANNELS 3 Zrotation Yrotation Xrotation
				JOINT right_elbow
				{
					OFFSET 0 -5.49576 0
					CHANNELS 3 Zrotation Yrotation Xrotation
					JOINT right_wrist
					{
						OFFSET 0 -5.17894 0
						CHANNELS 3 Zrotation Yrotation Xrotation
						End Site
						{
							OFFSET 0.0 0.0 0.0
						}
					}
				}
			}
			JOINT left_shoulder
			{
				OFFSET -0.481 4.87 -3.6622
				CHANNELS 3 Zrotation Yrotation Xrotation
				JOINT left_elbow
				{
					OFFSET 0 -5.49576 0
					CHANNELS 3 Zrotation Yrotation Xrotation
					JOINT left_wrist
					{
						OFFSET 0 -5.17894 0
						CHANNELS 3 Zrotation Yrotation Xrotation
						End Site
						{
							OFFSET 0.0 0.0 0.0
						}
					}
				}
			}
		}
		JOINT right_hip
		{
			OFFSET 0 0 1.69774
			CHANNELS 3 Zrotation Yrotation Xrotation
			JOINT right_knee
			{
				OFFSET 0 -8.43092 0
				CHANNELS 3 Zrotation Yrotation Xrotation
				JOINT right_ankle
				{
					OFFSET 0 -8.1974 0
					CHANNELS 3 Zrotation Yrotation Xrotation
					End Site
					{
						OFFSET 0.0 0.0 0.0
					}
				}
			}
		}
		JOINT left_hip
		{
			OFFSET 0 0 -1.69774
			CHANNELS 3 Zrotation Yrotation Xrotation
			JOINT left_knee
			{
				OFFSET 0 -8.43092 0
				CHANNELS 3 Zrotation Yrotation Xrotation
				JOINT left_ankle
				{
					OFFSET 0 -8.1974 0
					CHANNELS 3 Zrotation Yrotation Xrotation
					End Site
					{
						OFFSET 0.0 0.0 0.0
					}
				}
			}
		}
	}
	JOINT red_arrow
	{
		OFFSET 0 0 0
		CHANNELS 3 Zrotation Yrotation Xrotation
		End Site
		{
			OFFSET 0.0 0.0 0.0
		}
	}
	JOINT blue_arrow
	{
		OFFSET 0 0 0
		CHANNELS 3 Zrotation Yrotation Xrotation
		End Site
		{
			OFFSET 0.0 0.0 0.0
		}
	}
}
MOTION
Frames: 8
Frame Time: 0.0333333333333333
263.926124948263 0 52.4118222281337 0 -18.1475625570807 0 0 17.1095759630203 0 -11.3697856816607 -6.13804920941462 3.14405327238856 -3.38720595837761 -2.10939408838443 -2.51034745739688 -14.6560691778568 0.211234112137408 -8.38417379040962 2.72638838368487 21.105085203203 -22.4659178945717 33.1366388526548 0 0 0 0 0 -2.55077039524521 -1.29729453251957 3.75604829332157 0.000844885937632814 0 0 0 0 0 6.24416255238418 0.489926124027847 1.27378270722784 -53.4439114061266 0 0 -42.6630417974108 3.43083452561833 -7.75485845713949 26.5236779278252 7.13574568508333 -7.58930765926427 -10.9530954049339 0 0 -4.96955983551817 -3.62615070907887 7.32803878789063 0 0 0 0 0 0
264.989806514978 0 52.787214422226 0 -18.4795678653479 0 0 17.2989934325218 0 -9.48595011992864 -6.22252544786072 2.78993421187033 -1.80729330754024 -1.38011405311016 -1.57747738493166 -12.9371159856333 -0.0242670318655032 -6.73585916270189 2.58255697338862 15.8659199682952 -17.5396935227894 23.7223022516811 0 0 0 0 0 -1.0667402674969 -8.94452210626451 5.93596231872982 0.747723326721216 0 0 0 0 0 11.6053730693846 2.9789248204569 1.25909824708943 -69.2241243324301 0 0 -39.392326899523 5.37901750965082 -4.87517916197298 20.0048268448141 5.47076284487693 -7.97060580446585 -9.20895195885779 0 0 -1.8837033652889 -2.52400873490563 7.11402117392193 0 0 0 0 0 0
265.995134590566 0 53.1534159064293 0 -18.810756224839 0 0 17.4226944327354 0 -7.75555539622054 -6.23547493881976 2.04766095167137 -0.150052698774139 -0.840425403720016 -0.422471059797057 -9.71940831854908 0.027791837390925 -4.85603127728968 1.11238065726744 14.0792554379721 -17.07195562552 14.3869619111004 0 0 0 0 0 -0.400643728712974 -15.540866676005 9.4778497994611 2.24230542762511 0 0 0 0 0 17.0473599383207 4.52774611873627 0.693051124596173 -82.927184524579 0 0 -31.1464354399572 4.88483163853021 -2.76571750942252 14.400021937283 4.27037325697942 -7.55229216003406 -8.37544433764727 0 0 0.96526867385152 -3.40639821230729 6.81878136865666 0 0 0 0 0 0
266.898010751605 0 53.5338459946215 0 -19.0717415172643 0 0 17.5020123362541 0 -5.90307469090546 -4.93255601609011 1.14026214544647 -0.0952560032396415 -0.713216029317627 -0.113509439059433 -6.84445441930076 0.0668112779827746 -3.25706475852909 0.449592809645418 11.7635904878907 -15.5016610432236 6.35022110486538 0 0 0 0 0 -0.688267004466858 -21.9360590890681 14.047252674081 7.33182216832058 0 0 0 0 0 22.4767904808008 4.91274250889658 -0.228761784592353 -93.6921363924094 0 0 -20.9312330352581 3.36435260021653 -1.93882650973043 9.5015034343586 3.04358912904173 -6.87433899024239 -8.50048461078269 0 0 3.28654090210477 -5.38595389014521 6.52496398442015 0 0 0 0 0 0
267.760093738139 0 53.9490620680153 0 -19.179161878465 0 0 17.5680390119553 0 -3.85396281829285 -2.03637527982452 -0.0990989254120257 -1.04269485208437 -0.79124717589626 -0.161036552313224 -4.33995617150519 0.0153339228798846 -1.98319090144503 -0.819338883399013 9.80633519938818 -14.0585769485633 -0.0218533736773876 0 0 0 0 0 -1.78792516140679 -27.2418307441808 19.4031642974301 13.9791005799077 0 0 0 0 0 27.4220694649587 3.21756595224749 -1.40597622769439 -99.2866828698644 0 0 -9.75615676340518 1.21344064239466 -2.55485185058093 3.89517075175179 1.62941439396189 -5.74645378684765 -7.47516820220529 0 0 4.59570989293639 -7.79357496587832 6.29862963590902 0 0 0 0 0 0
268.575241091102 0 54.3669130373746 0 -19.0831953679187 0 0 17.6453657388687 0 -2.34990704734406 1.82183139388613 -1.37067471943797 -2.20273304103775 -0.385420410042733 -0.446750907257475 -1.05925681090679 -0.0563997166879178 -0.911465163817475 -3.15756718985462 6.73524965620574 -11.8514256583377 -6.96574410520348E-06 0 0 0 0 0 -3.57477590518098 -32.2032523109257 25.1077403402277 24.0689087388498 0 0 0 0 0 31.5323571182029 0.0470680341896837 -2.64953200893512 -96.7238729498705 0 0 -0.00309117177272982 -1.51579312852316 -3.66893556891461 -0.20876932006297 0.248143808355584 -4.03294826526015 -7.96338073256769 0 0 5.2021699410437 -10.2871910143773 6.20695063028159 0 0 0 0 0 0
269.323523811251 0 54.7212966144085 0 -18.8276419581707 0 0 17.6971297502518 0 -2.04619082383404 4.85243353610861 -2.28617744000443 -2.47738327718628 0.300330053785191 -0.579855656254623 1.54595240121041 -0.245781630627707 -0.605365556162786 -5.03038117002406 4.60798637203847 -10.0562239801787 -9.77750588890894E-06 0 0 0 0 0 -6.10542538333999 -36.6800544342002 32.4527280628094 33.1427860229078 0 0 0 0 0 36.8396314196285 -5.08897207543749 -4.72770340991612 -87.5064028913441 0 0 9.06448514588667 -4.75731876473 -5.72544594093457 -2.84937476393172 -0.837918633254657 -2.44508140058831 -8.42042027955815 0 0 5.30183960756176 -12.0835109921145 6.25045666651606 0 0 0 0 0 0
270.106478960067 0 54.9774284444749 0 -18.4956903591682 0 0 17.6904371261597 0 -1.99303533908668 6.30329570742182 -2.49440252881667 -2.91429669364914 1.03912420374469 -0.41305866790882 4.5073868549249 -0.568692932429951 -0.465275392577087 -8.5349705060407 3.57579938563083 -10.5976091261122 -1.21566894377194E-05 0 0 0 0 0 -7.52284740959517 -36.8607016455833 35.7058980115038 40.2606183645319 0 0 0 0 0 41.5901617398195 -9.85058757813508 -6.95446649007968 -75.7780186901375 0 0 17.2383795753435 -8.5228598699576 -8.43508123978858 -4.9134755923027 -1.41314189891197 -1.86734782524746 -9.61753472878159 0 0 5.45493957015011 -12.8508367441874 6.74442396029226 0 0 0 0 0 0
